HIERARCHY
ROOT Hips
{
	OFFSET -13.091600 -28.302996 44.698402
	CHANNELS 6 Xposition Yposition Zposition Zrotation Xrotation Yrotation
	JOINT Chest
	{
		OFFSET -0.673000 0.623899 5.369202
		CHANNELS 6 Xposition Yposition Zposition Zrotation Xrotation Yrotation
		JOINT Chest2
		{
			OFFSET 0.000000 0.000000 4.415001
			CHANNELS 6 Xposition Yposition Zposition Zrotation Xrotation Yrotation
			JOINT Neck
			{
				OFFSET 0.000000 0.000002 10.273300
				CHANNELS 6 Xposition Yposition Zposition Zrotation Xrotation Yrotation
				JOINT Head
				{
					OFFSET 0.000000 0.000000 2.173897
					CHANNELS 6 Xposition Yposition Zposition Zrotation Xrotation Yrotation
					End Site
					{
						OFFSET 0.000000 0.000000 9.961800
					}
				}
			}
			JOINT LeftCollar
			{
				OFFSET 2.359900 -0.565201 5.928101
				CHANNELS 6 Xposition Yposition Zposition Zrotation Xrotation Yrotation
				JOINT LeftShoulder
				{
					OFFSET 5.443700 0.000000 0.000000
					CHANNELS 6 Xposition Yposition Zposition Zrotation Xrotation Yrotation
					JOINT LeftElbow
					{
						OFFSET 0.000000 0.000000 -10.615799
						CHANNELS 6 Xposition Yposition Zposition Zrotation Xrotation Yrotation
						JOINT LeftWrist
						{
							OFFSET 0.000000 -0.000002 -13.110302
							CHANNELS 6 Xposition Yposition Zposition Zrotation Xrotation Yrotation
							End Site
							{
								OFFSET 0.000000 0.000000 -2.173901
							}
						}
					}
				}
			}
			JOINT RightCollar
			{
				OFFSET -2.636600 -1.718800 6.889698
				CHANNELS 6 Xposition Yposition Zposition Zrotation Xrotation Yrotation
				JOINT RightShoulder
				{
					OFFSET -4.139101 0.000000 0.000000
					CHANNELS 6 Xposition Yposition Zposition Zrotation Xrotation Yrotation
					JOINT RightElbow
					{
						OFFSET 0.000000 0.000000 -10.471802
						CHANNELS 6 Xposition Yposition Zposition Zrotation Xrotation Yrotation
						JOINT RightWrist
						{
							OFFSET 0.000000 0.000000 -12.281898
							CHANNELS 6 Xposition Yposition Zposition Zrotation Xrotation Yrotation
							End Site
							{
								OFFSET 0.000000 -0.000002 -2.173901
							}
						}
					}
				}
			}
		}
	}
	JOINT LeftHip
	{
		OFFSET 2.273400 0.176701 -2.518002
		CHANNELS 6 Xposition Yposition Zposition Zrotation Xrotation Yrotation
		JOINT LeftKnee
		{
			OFFSET 0.000000 -0.000002 -20.456402
			CHANNELS 6 Xposition Yposition Zposition Zrotation Xrotation Yrotation
			JOINT LeftAnkle
			{
				OFFSET 0.000000 -0.000002 -16.635300
				CHANNELS 6 Xposition Yposition Zposition Zrotation Xrotation Yrotation
				End Site
				{
					OFFSET 0.000000 -8.812399 0.000001
				}
			}
		}
	}
	JOINT RightHip
	{
		OFFSET -1.914800 0.018101 -2.699299
		CHANNELS 6 Xposition Yposition Zposition Zrotation Xrotation Yrotation
		JOINT RightKnee
		{
			OFFSET 0.000000 -0.000002 -20.148901
			CHANNELS 6 Xposition Yposition Zposition Zrotation Xrotation Yrotation
			JOINT RightAnkle
			{
				OFFSET 0.000000 -0.000002 -16.838301
				CHANNELS 6 Xposition Yposition Zposition Zrotation Xrotation Yrotation
				End Site
				{
					OFFSET 0.000000 -8.328398 0.000001
				}
			}
		}
	}
}
MOTION
Frames: 9
Frame Time: 0.041667
-11.452499 -6.517691 44.396206 345.493262 3.735348 -7.575936 -0.673003 0.623902 5.369204 14.432159 -4.235437 -12.385568 -0.000001 -0.000003 4.414998 -11.529629 -3.710448 -1.300932 0.000002 -0.000002 10.273302 -43.202196 12.010724 31.566563 -0.000001 -0.000002 2.173890 1.058395 -4.072370 -1.302619 2.359900 -0.565203 5.928102 15.011718 -5.346362 -18.945562 5.443696 -0.000004 0.000007 177.977723 206.889845 -273.181448 0.000005 -0.000001 -10.615799 241.840661 -171.128368 180.807470 0.000001 -0.000002 -13.110293 -326.236609 -0.764575 -1.235976 -2.636600 -1.718802 6.889698 -16.833647 -19.346900 25.168600 -4.139098 0.000002 0.000002 306.091403 -142.745681 363.677302 -0.000003 0.000006 -10.471803 -80.270391 -32.491794 -101.664483 0.000004 -0.000008 -12.281895 19.020060 -7.364651 14.760379 2.273402 0.176705 -2.518004 -172.521808 -170.446551 -165.748296 0.000000 -0.000004 -20.456402 -7.885947 26.282534 16.180351 -0.000004 -0.000002 -16.635300 27.339181 6.836060 16.402361 -1.914800 0.018106 -2.699304 22.691449 195.768781 58.725249 0.000006 0.000000 -20.148901 195.256107 43.715267 -125.295722 0.000002 -0.000001 -16.838299 -57.497079 0.001231 -17.415635
-11.482297 -6.552597 44.402103 345.564788 3.685793 -7.515611 -0.673005 0.623903 5.369215 14.338715 -4.280753 -12.434734 -0.000002 0.000001 4.415006 -11.556813 -3.699013 -1.306195 0.000002 -0.000002 10.273314 -43.176419 12.015617 31.611451 -0.000002 -0.000001 2.173900 1.063892 -4.115697 -1.276610 2.359903 -0.565204 5.928107 14.977650 -5.354831 -18.965149 5.443697 -0.000004 -0.000002 178.012652 206.952259 -273.159892 -0.000001 -0.000001 -10.615802 241.695970 -171.141892 180.764535 0.000001 -0.000005 -13.110300 -326.369989 -0.667809 -1.304282 -2.636600 -1.718802 6.889713 -16.796000 -19.195980 25.116007 -4.139100 0.000006 0.000001 306.179977 -142.862477 363.806802 -0.000001 -0.000003 -10.471807 -80.213987 -32.746427 -101.619309 0.000002 -0.000004 -12.281900 18.696313 -7.213258 14.904058 2.273400 0.176705 -2.518001 -172.587078 -170.526273 -165.850681 -0.000003 -0.000001 -20.456398 -7.949186 26.291159 16.208717 -0.000003 -0.000002 -16.635300 27.303423 6.825823 16.444442 -1.914799 0.018104 -2.699302 22.684084 195.810459 58.821999 0.000006 -0.000002 -20.148903 195.142507 43.524158 -125.200304 0.000002 -0.000000 -16.838299 -57.653115 -0.025668 -17.468595
-11.512000 -6.587292 44.409405 345.617435 3.658493 -7.452468 -0.673002 0.623897 5.369210 14.269310 -4.328378 -12.493960 0.000002 -0.000000 4.415009 -11.589914 -3.711900 -1.317523 0.000001 0.000002 10.273309 -43.169797 11.978785 31.682963 0.000001 -0.000005 2.173889 1.089640 -4.136243 -1.268364 2.359903 -0.565202 5.928108 14.920818 -5.321816 -18.925542 5.443703 -0.000006 -0.000000 178.075613 206.948202 -273.178661 0.000002 0.000000 -10.615791 241.656027 -171.163817 180.703815 -0.000002 -0.000010 -13.110293 -326.461814 -0.548272 -1.343239 -2.636599 -1.718801 6.889700 -16.794791 -18.949636 24.972292 -4.139096 -0.000002 -0.000003 306.101457 -143.103446 363.876853 -0.000006 0.000000 -10.471799 -80.211815 -32.885411 -101.500477 -0.000008 -0.000006 -12.281898 18.463065 -7.093221 15.124112 2.273398 0.176701 -2.517996 -172.646541 -170.593687 -165.959035 -0.000003 0.000001 -20.456404 -8.025518 26.273643 16.250087 -0.000002 -0.000001 -16.635302 27.304007 6.814510 16.456241 -1.914800 0.018102 -2.699305 22.707036 195.846140 58.914343 0.000006 -0.000002 -20.148899 195.077456 43.365909 -125.142439 0.000003 -0.000000 -16.838299 -57.760103 -0.043269 -17.496100
-11.540401 -6.620190 44.417706 345.656831 3.687080 -7.402802 -0.673004 0.623899 5.369207 14.226296 -4.400063 -12.533617 -0.000000 -0.000001 4.415004 -11.605180 -3.731714 -1.323753 0.000000 -0.000001 10.273313 -43.191084 11.905092 31.739431 0.000002 -0.000002 2.173905 1.112042 -4.131972 -1.273234 2.359902 -0.565204 5.928101 14.892842 -5.280747 -18.901336 5.443695 -0.000005 0.000008 178.133738 206.831146 -273.153526 -0.000001 -0.000007 -10.615798 241.717335 -171.191875 180.620132 0.000001 -0.000006 -13.110299 -326.495692 -0.423014 -1.345469 -2.636600 -1.718801 6.889710 -16.834979 -18.844948 24.853528 -4.139100 0.000005 -0.000003 305.789236 -143.244107 363.725824 -0.000004 0.000006 -10.471802 -80.376000 -32.997054 -101.286337 -0.000009 -0.000007 -12.281897 18.236434 -7.041007 15.268241 2.273399 0.176704 -2.517997 -172.698205 -170.612347 -166.047377 -0.000002 -0.000002 -20.456402 -8.091648 26.237110 16.290821 -0.000004 -0.000001 -16.635298 27.325949 6.805801 16.435097 -1.914800 0.018099 -2.699303 22.748970 195.847424 58.980630 -0.000001 -0.000003 -20.148907 195.142603 43.380396 -125.199171 -0.000000 -0.000002 -16.838297 -57.717120 -0.050431 -17.344774
-11.568399 -6.652094 44.426903 345.682677 3.721940 -7.387306 -0.672999 0.623901 5.369202 14.205851 -4.434725 -12.539438 0.000004 -0.000003 4.415004 -11.608579 -3.759829 -1.327391 -0.000002 -0.000000 10.273303 -43.226201 11.799696 31.774812 -0.000004 -0.000002 2.173896 1.147219 -4.105984 -1.272677 2.359900 -0.565203 5.928097 14.886177 -5.256590 -18.916209 5.443703 -0.000001 0.000000 178.225249 206.636404 -273.052358 -0.000002 0.000001 -10.615804 241.751650 -171.194170 180.539563 0.000002 -0.000004 -13.110286 -326.451350 -0.295125 -1.383094 -2.636601 -1.718798 6.889693 -16.893320 -18.853658 24.770381 -4.139098 0.000000 -0.000012 305.330302 -143.287615 363.436770 -0.000005 0.000006 -10.471802 -80.666822 -33.158082 -100.999257 -0.000001 0.000005 -12.281894 18.041767 -6.969776 15.347807 2.273401 0.176707 -2.518010 -172.001826 -170.656470 -165.998431 -0.000002 -0.000001 -20.456396 -8.335214 26.506919 16.196494 -0.000003 -0.000001 -16.635300 26.931854 6.806298 16.186314 -1.914796 0.018107 -2.699305 22.632202 196.496811 59.040066 -0.000000 -0.000002 -20.148903 194.854697 43.858359 -125.416767 0.000002 -0.000002 -16.838299 -57.554159 0.012796 -17.115831
-11.597300 -6.683195 44.436409 345.727455 3.731755 -7.381831 -0.673004 0.623897 5.369208 14.166197 -4.430879 -12.542776 0.000002 -0.000004 4.415003 -11.621483 -3.786613 -1.330105 0.000001 0.000001 10.273312 -43.262517 11.677796 31.804223 -0.000001 -0.000002 2.173895 1.182975 -4.069014 -1.281734 2.359902 -0.565203 5.928106 14.955283 -5.319913 -18.992861 5.443697 -0.000005 0.000004 178.238827 206.365191 -272.953593 0.000009 0.000001 -10.615799 242.087203 -171.330924 180.519851 0.000001 -0.000003 -13.110297 -326.713630 -0.248200 -1.427218 -2.636598 -1.718802 6.889715 -16.836469 -18.868058 24.818601 -4.139095 0.000003 -0.000004 304.673838 -143.229122 363.119958 -0.000004 -0.000000 -10.471807 -81.032292 -33.304702 -100.608140 -0.000006 -0.000010 -12.281901 17.841352 -6.912510 15.384989 2.273398 0.176702 -2.517995 -172.093433 -170.706699 -166.053018 -0.000001 -0.000001 -20.456398 -8.323625 26.437012 16.219570 -0.000004 -0.000003 -16.635302 26.943706 6.823011 16.106399 -1.914799 0.018095 -2.699296 22.670098 196.481361 59.060844 0.000000 0.000001 -20.148907 195.006422 43.897557 -125.532620 0.000002 0.000000 -16.838295 -57.490003 0.005255 -16.962218
-11.627199 -6.713295 44.446304 345.799009 3.727755 -7.388638 -0.673002 0.623900 5.369213 14.101142 -4.406160 -12.523352 0.000000 -0.000000 4.415004 -11.625639 -3.810343 -1.332197 -0.000003 0.000003 10.273306 -43.312087 11.565968 31.817910 0.000002 -0.000006 2.173901 1.208229 -4.042085 -1.276573 2.359900 -0.565199 5.928102 15.026464 -5.389909 -19.069501 5.443699 -0.000006 -0.000004 178.190934 206.173126 -272.960833 0.000002 -0.000002 -10.615801 242.500894 -171.595935 180.541543 0.000001 -0.000005 -13.110291 -327.236440 -0.319624 -1.506486 -2.636602 -1.718801 6.889700 -16.816402 -18.884848 24.793409 -4.139093 0.000001 -0.000007 304.228674 -143.221226 362.883743 -0.000003 0.000001 -10.471805 -81.197726 -33.457729 -100.102802 -0.000002 -0.000004 -12.281901 17.654670 -6.884482 15.341445 2.273400 0.176705 -2.517995 -172.215953 -170.770889 -166.094764 -0.000001 -0.000003 -20.456404 -8.280523 26.363620 16.225473 -0.000007 0.000001 -16.635298 26.940148 6.851632 16.015650 -1.914799 0.018103 -2.699294 22.677116 196.467222 59.076779 0.000001 -0.000002 -20.148903 195.258265 44.084312 -125.722309 -0.000000 0.000004 -16.838301 -57.297549 0.035261 -16.761633
-11.658199 -6.741995 44.454208 345.874550 3.730590 -7.407550 -0.673003 0.623899 5.369214 14.035576 -4.376358 -12.489499 0.000001 -0.000001 4.415010 -11.611496 -3.836560 -1.331967 0.000002 -0.000001 10.273310 -43.341785 11.485736 31.803782 0.000003 -0.000003 2.173902 1.192850 -4.032527 -1.241445 2.359900 -0.565203 5.928102 15.105170 -5.467054 -19.140890 5.443702 -0.000006 0.000008 178.102210 206.005090 -272.988919 0.000003 0.000004 -10.615800 242.831694 -171.860673 180.564875 0.000003 0.000001 -13.110292 -327.829327 -0.423944 -1.703885 -2.636598 -1.718802 6.889700 -16.833080 -18.972946 24.763903 -4.139098 -0.000001 -0.000002 304.063220 -143.179575 362.740856 -0.000002 0.000002 -10.471796 -81.127771 -33.650132 -99.476125 0.000003 0.000003 -12.281897 17.477479 -6.878024 15.199384 2.273400 0.176701 -2.517996 -172.322695 -170.827662 -166.121908 -0.000003 -0.000001 -20.456402 -8.214787 26.302782 16.217574 -0.000005 -0.000003 -16.635296 26.905739 6.892507 15.912000 -1.914798 0.018104 -2.699292 22.684590 196.442483 59.076608 0.000006 -0.000003 -20.148899 195.485997 44.220465 -125.887367 0.000005 -0.000001 -16.838299 -57.153189 0.048063 -16.653045
-11.690599 -6.770792 44.460106 345.942934 3.747941 -7.435233 -0.673005 0.623900 5.369208 13.978670 -4.363179 -12.449875 0.000001 -0.000000 4.415005 -11.595922 -3.855568 -1.333605 -0.000004 0.000000 10.273300 -43.361545 11.416742 31.812965 -0.000004 -0.000003 2.173905 1.173179 -4.037596 -1.224247 2.359902 -0.565202 5.928097 15.145038 -5.526805 -19.184815 5.443694 -0.000006 0.000002 178.015371 205.953371 -273.042194 -0.000003 0.000000 -10.615796 242.787707 -172.076699 180.566897 0.000002 -0.000011 -13.110296 -328.495762 -0.524510 -2.155777 -2.636602 -1.718801 6.889700 -16.815550 -18.960737 24.738474 -4.139095 0.000007 -0.000011 303.976941 -143.193195 362.733097 0.000000 0.000002 -10.471803 -81.117034 -33.766785 -98.828657 -0.000008 0.000001 -12.281897 17.400363 -6.625744 15.112212 2.273400 0.176703 -2.517999 -172.435912 -170.871840 -166.141155 -0.000003 -0.000004 -20.456398 -8.127240 26.237798 16.204202 -0.000006 -0.000001 -16.635302 26.847242 6.954883 15.817183 -1.914801 0.018105 -2.699301 22.694400 196.406761 59.062497 0.000004 -0.000005 -20.148914 195.626426 44.260063 -125.983263 0.000005 -0.000002 -16.838299 -57.105760 0.061518 -16.646464
